<svg xmlns="http://www.w3.org/2000/svg" width="64" height="64" viewBox="0 0 64 64" fill="none">

<rect width="64" height="64" rx="11.52" ry="11.52" fill="#0A0A0A"></rect>
<g transform="translate(12.36, 41.50)">
<path d="M75 -150V532H175L177 451Q200 497 242.5 520.5Q285 544 338 544Q416 544 466.5 505.5Q517 467 541.5 404.0Q566 341 566 266Q566 191 541.5 128.0Q517 65 466.5 26.5Q416 -12 338 -12Q287 -12 245.0 10.5Q203 33 181 72V-150ZM319 80Q383 80 419.5 129.0Q456 178 456 266Q456 354 419.5 403.0Q383 452 319 452Q255 452 218.0 405.0Q181 358 181 266Q181 174 218.0 127.0Q255 80 319 80Z" transform="translate(0.00,0.00) scale(0.03520,-0.03520)" fill="#FAFAF9"></path>
<path d="M75 -150V532H175L177 451Q200 497 242.5 520.5Q285 544 338 544Q416 544 466.5 505.5Q517 467 541.5 404.0Q566 341 566 266Q566 191 541.5 128.0Q517 65 466.5 26.5Q416 -12 338 -12Q287 -12 245.0 10.5Q203 33 181 72V-150ZM319 80Q383 80 419.5 129.0Q456 178 456 266Q456 354 419.5 403.0Q383 452 319 452Q255 452 218.0 405.0Q181 358 181 266Q181 174 218.0 127.0Q255 80 319 80Z" transform="translate(19.64,0.00) scale(0.03520,-0.03520)" fill="#FAFAF9"></path>
</g>
<rect x="39.68" y="38.69" width="2.11" height="2.11" rx="1.06" fill="#2563EB"></rect>
</svg>